{"glyphs":{"0":{"ha":631,"x_min":51,"x_max":581,"o":"m 556 442 l 581 417 l 581 63 q 518 0 568 13 l 480 101 l 480 366 l 556 442 m 492 0 l 114 0 q 51 63 63 13 l 152 101 l 455 101 l 492 0 m 51 88 l 51 417 l 76 442 l 152 366 l 152 126 l 51 88 m 455 808 l 153 808 l 52 846 q 115 909 64 896 l 492 909 l 455 808 m 152 783 l 152 543 l 76 467 l 51 492 l 51 821 l 152 783 m 480 543 l 480 808 l 518 909 q 581 846 568 896 l 581 492 l 556 467 l 480 543 z "},"1":{"ha":631,"x_min":480,"x_max":581,"o":"m 556 442 l 581 417 l 581 63 q 518 0 568 13 l 480 101 l 480 366 l 556 442 m 480 543 l 480 808 l 518 909 q 581 846 568 896 l 581 492 l 556 467 l 480 543 z "},"2":{"ha":631,"x_min":51,"x_max":581,"o":"m 480 505 l 530 455 l 480 404 l 152 404 l 101 455 l 152 505 l 480 505 m 530 0 l 114 0 q 51 63 63 13 l 152 101 l 492 101 l 530 0 m 51 88 l 51 417 l 76 442 l 152 366 l 152 126 l 51 88 m 455 808 l 153 808 l 52 846 q 115 909 64 896 l 492 909 l 455 808 m 480 543 l 480 808 l 518 909 q 581 846 568 896 l 581 492 l 556 467 l 480 543 z "},"3":{"ha":631,"x_min":51,"x_max":581,"o":"m 480 505 l 530 455 l 480 404 l 152 404 l 101 455 l 152 505 l 480 505 m 556 442 l 581 417 l 581 63 q 518 0 568 13 l 480 101 l 480 366 l 556 442 m 492 0 l 114 0 q 51 63 63 13 l 152 101 l 455 101 l 492 0 m 455 808 l 153 808 l 52 846 q 115 909 64 896 l 492 909 l 455 808 m 480 543 l 480 808 l 518 909 q 581 846 568 896 l 581 492 l 556 467 l 480 543 z "},"4":{"ha":631,"x_min":51,"x_max":581,"o":"m 480 505 l 530 455 l 480 404 l 152 404 l 101 455 l 152 505 l 480 505 m 556 442 l 581 417 l 581 63 q 518 0 568 13 l 480 101 l 480 366 l 556 442 m 152 821 l 152 543 l 76 467 l 51 492 l 51 859 l 152 821 m 480 543 l 480 808 l 518 909 q 581 846 568 896 l 581 492 l 556 467 l 480 543 z "},"5":{"ha":631,"x_min":51,"x_max":581,"o":"m 480 505 l 530 455 l 480 404 l 152 404 l 101 455 l 152 505 l 480 505 m 556 442 l 581 417 l 581 63 q 518 0 568 13 l 480 101 l 480 366 l 556 442 m 492 0 l 114 0 q 51 63 63 13 l 152 101 l 455 101 l 492 0 m 492 808 l 153 808 l 52 846 q 115 909 64 896 l 530 909 l 492 808 m 152 783 l 152 543 l 76 467 l 51 492 l 51 821 l 152 783 z "},"6":{"ha":631,"x_min":51,"x_max":581,"o":"m 480 505 l 530 455 l 480 404 l 152 404 l 101 455 l 152 505 l 480 505 m 556 442 l 581 417 l 581 63 q 518 0 568 13 l 480 101 l 480 366 l 556 442 m 492 0 l 114 0 q 51 63 63 13 l 152 101 l 455 101 l 492 0 m 51 88 l 51 417 l 76 442 l 152 366 l 152 126 l 51 88 m 492 808 l 153 808 l 52 846 q 115 909 64 896 l 530 909 l 492 808 m 152 783 l 152 543 l 76 467 l 51 492 l 51 821 l 152 783 z "},"7":{"ha":631,"x_min":51,"x_max":581,"o":"m 556 442 l 581 417 l 581 63 q 518 0 568 13 l 480 101 l 480 366 l 556 442 m 455 808 l 153 808 l 52 846 q 115 909 64 896 l 492 909 l 455 808 m 152 783 l 152 543 l 76 467 l 51 492 l 51 821 l 152 783 m 480 543 l 480 808 l 518 909 q 581 846 568 896 l 581 492 l 556 467 l 480 543 z "},"8":{"ha":631,"x_min":51,"x_max":581,"o":"m 480 505 l 530 455 l 480 404 l 152 404 l 101 455 l 152 505 l 480 505 m 556 442 l 581 417 l 581 63 q 518 0 568 13 l 480 101 l 480 366 l 556 442 m 492 0 l 114 0 q 51 63 63 13 l 152 101 l 455 101 l 492 0 m 51 88 l 51 417 l 76 442 l 152 366 l 152 126 l 51 88 m 455 808 l 153 808 l 52 846 q 115 909 64 896 l 492 909 l 455 808 m 152 783 l 152 543 l 76 467 l 51 492 l 51 821 l 152 783 m 480 543 l 480 808 l 518 909 q 581 846 568 896 l 581 492 l 556 467 l 480 543 z "},"9":{"ha":631,"x_min":51,"x_max":581,"o":"m 480 505 l 530 455 l 480 404 l 152 404 l 101 455 l 152 505 l 480 505 m 556 442 l 581 417 l 581 63 q 518 0 568 13 l 480 101 l 480 366 l 556 442 m 492 0 l 114 0 q 51 63 63 13 l 152 101 l 455 101 l 492 0 m 455 808 l 153 808 l 52 846 q 115 909 64 896 l 492 909 l 455 808 m 152 783 l 152 543 l 76 467 l 51 492 l 51 821 l 152 783 m 480 543 l 480 808 l 518 909 q 581 846 568 896 l 581 492 l 556 467 l 480 543 z "}," ":{"ha":631,"x_min":0,"x_max":0,"o":""},"!":{"ha":631,"x_min":265,"x_max":366,"o":"m 341 442 l 366 417 l 366 202 l 265 202 l 265 366 l 341 442 m 265 543 l 265 808 l 303 909 q 366 846 354 896 l 366 492 l 341 467 l 265 543 m 366 0 l 265 0 l 265 101 l 366 101 l 366 0 z "},"\"":{"ha":631,"x_min":177,"x_max":481,"o":"m 278 707 l 227 657 l 177 707 l 177 909 l 278 909 l 278 707 m 481 708 l 431 658 l 380 708 l 380 910 l 481 910 l 481 708 z "},"#":{"ha":631,"x_min":38,"x_max":593,"o":"m 341 606 l 391 556 l 341 505 l 290 505 l 240 556 l 290 606 l 341 606 m 341 404 l 391 354 l 341 303 l 290 303 l 240 354 l 290 404 l 341 404 m 164 480 l 215 530 l 265 480 l 265 429 l 215 379 l 164 429 l 164 480 m 366 480 l 417 530 l 467 480 l 467 429 l 417 379 l 366 429 l 366 480 m 164 707 l 215 758 l 265 707 l 265 631 l 215 581 l 164 631 l 164 707 m 366 707 l 417 758 l 467 707 l 467 631 l 417 581 l 366 631 l 366 707 m 366 279 l 417 330 l 467 279 l 467 202 l 417 152 l 366 202 l 366 279 m 164 278 l 215 328 l 265 278 l 265 201 l 215 150 l 164 201 l 164 278 m 139 404 l 189 354 l 139 303 l 88 303 l 38 354 l 88 404 l 139 404 m 543 403 l 593 352 l 543 302 l 492 302 l 442 352 l 492 403 l 543 403 m 543 606 l 593 556 l 543 505 l 492 505 l 442 556 l 492 606 l 543 606 m 139 605 l 189 554 l 139 504 l 88 504 l 38 554 l 88 605 l 139 605 z "},"$":{"ha":631,"x_min":51,"x_max":581,"o":"m 480 505 l 530 455 l 480 404 l 152 404 l 101 455 l 152 505 l 480 505 m 556 442 l 581 417 l 581 63 q 518 0 568 13 l 480 101 l 480 366 l 556 442 m 492 0 l 114 0 q 51 63 63 13 l 152 101 l 455 101 l 492 0 m 152 783 l 152 543 l 76 467 l 51 492 l 51 821 l 152 783 m 153 808 l 52 846 q 115 909 64 896 l 518 909 q 581 846 568 896 l 480 808 l 153 808 m 278 947 l 278 1010 l 328 1061 l 379 1010 l 379 947 l 278 947 m 278 543 l 278 770 l 379 770 l 379 543 l 278 543 m 278 139 l 278 366 l 379 366 l 379 139 l 278 139 m 379 -38 l 379 -101 l 328 -152 l 278 -101 l 278 -38 l 379 -38 z "},"%":{"ha":631,"x_min":0,"x_max":631,"o":"m 330 604 l 480 909 q 581 859 556 909 l 386 467 l 330 467 l 330 604 m 302 306 l 152 0 q 51 51 76 0 l 245 442 l 302 442 l 302 306 m 177 808 l 101 808 l 0 846 q 63 909 13 896 l 215 909 l 177 808 m 101 783 l 101 707 l 63 606 q 0 669 13 619 l 0 821 l 101 783 m 126 707 l 202 707 l 303 669 q 240 606 290 619 l 88 606 l 126 707 m 202 732 l 202 808 l 240 909 q 303 846 290 896 l 303 694 l 202 732 m 530 126 l 530 202 l 568 303 q 631 240 619 290 l 631 88 l 530 126 m 505 202 l 429 202 l 328 240 q 391 303 341 290 l 543 303 l 505 202 m 429 177 l 429 101 l 391 0 q 328 63 341 13 l 328 215 l 429 177 m 455 101 l 530 101 l 631 63 q 568 0 619 13 l 417 0 l 455 101 z "},"&":{"ha":631,"x_min":51,"x_max":631,"o":"m 480 505 l 530 455 l 480 404 l 152 404 l 101 455 l 152 505 l 480 505 m 556 442 l 581 417 l 581 126 l 518 126 l 480 164 l 480 366 l 556 442 m 606 0 l 114 0 q 51 63 63 13 l 152 101 l 556 101 l 631 25 l 606 0 m 51 88 l 51 417 l 76 442 l 152 366 l 152 126 l 51 88 m 404 758 l 202 758 l 101 795 q 164 859 114 846 l 442 859 l 404 758 m 202 732 l 202 593 l 126 518 l 101 543 l 101 770 l 202 732 m 429 593 l 429 758 l 467 859 q 530 795 518 846 l 530 543 l 505 518 l 429 593 m 581 -25 l 581 -88 l 556 -114 l 480 -38 l 480 -25 l 581 -25 z "},"'":{"ha":631,"x_min":278,"x_max":379,"o":"m 379 707 l 328 657 l 278 707 l 278 909 l 379 909 l 379 707 z "},"(":{"ha":631,"x_min":51,"x_max":366,"o":"m 316 808 l 177 808 l 126 859 l 177 909 l 316 909 l 366 859 l 316 808 m 76 467 l 51 492 l 51 783 l 114 846 l 152 808 l 152 543 l 76 467 m 366 51 l 316 0 l 177 0 l 126 51 l 177 101 l 316 101 l 366 51 m 152 366 l 152 101 l 114 63 l 51 126 l 51 417 l 76 442 l 152 366 z "},")":{"ha":631,"x_min":240,"x_max":556,"o":"m 290 101 l 429 101 l 480 51 l 429 0 l 290 0 l 240 51 l 290 101 m 530 442 l 556 417 l 556 126 l 492 63 l 455 101 l 455 366 l 530 442 m 240 859 l 290 909 l 429 909 l 480 859 l 429 808 l 290 808 l 240 859 m 455 543 l 455 808 l 492 846 l 556 783 l 556 492 l 530 467 l 455 543 z "},"*":{"ha":631,"x_min":107,"x_max":524,"o":"m 265 543 l 265 644 l 316 694 l 366 644 l 366 543 l 455 593 l 524 574 l 505 505 l 418 455 l 505 404 l 524 335 l 455 316 l 366 366 l 366 265 l 316 215 l 265 265 l 265 366 l 177 316 l 107 335 l 126 404 l 213 455 l 126 505 l 107 574 l 177 593 l 265 543 z "},"+":{"ha":631,"x_min":101,"x_max":530,"o":"m 265 505 l 265 619 l 316 669 l 366 619 l 366 505 l 480 505 l 530 455 l 480 404 l 366 404 l 366 290 l 316 240 l 265 290 l 265 404 l 152 404 l 101 455 l 152 505 l 265 505 z "},",":{"ha":631,"x_min":265,"x_max":366,"o":"m 366 -101 l 316 -152 l 265 -101 l 265 101 l 366 101 l 366 -101 z "},"-":{"ha":631,"x_min":101,"x_max":530,"o":"m 480 505 l 530 455 l 480 404 l 152 404 l 101 455 l 152 505 l 480 505 z "},".":{"ha":631,"x_min":265,"x_max":366,"o":"m 366 0 l 265 0 l 265 101 l 366 101 l 366 0 z "},"/":{"ha":631,"x_min":51,"x_max":581,"o":"m 330 604 l 480 909 q 581 859 556 909 l 386 467 l 330 467 l 330 604 m 302 306 l 152 0 q 51 51 76 0 l 245 442 l 302 442 l 302 306 z "},":":{"ha":631,"x_min":265,"x_max":366,"o":"m 366 202 l 265 202 l 265 303 l 366 303 l 366 202 m 366 606 l 265 606 l 265 707 l 366 707 l 366 606 z "},";":{"ha":631,"x_min":265,"x_max":366,"o":"m 366 606 l 265 606 l 265 707 l 366 707 l 366 606 m 366 -101 l 316 -152 l 265 -101 l 265 101 l 366 101 l 366 -101 z "},"<":{"ha":631,"x_min":126,"x_max":467,"o":"m 265 467 l 126 467 l 379 720 l 429 720 l 467 670 l 265 467 m 467 239 l 429 189 l 379 189 l 126 442 l 265 442 l 467 239 z "},"=":{"ha":631,"x_min":101,"x_max":530,"o":"m 480 606 l 530 556 l 480 505 l 152 505 l 101 556 l 152 606 l 480 606 m 480 403 l 530 352 l 480 302 l 152 302 l 101 352 l 152 403 l 480 403 z "},">":{"ha":631,"x_min":126,"x_max":467,"o":"m 126 670 l 164 720 l 215 720 l 467 467 l 328 467 l 126 670 m 328 442 l 467 442 l 215 189 l 164 189 l 126 239 l 328 442 z "},"?":{"ha":631,"x_min":51,"x_max":581,"o":"m 480 505 l 530 455 l 480 404 l 152 404 l 101 455 l 152 505 l 480 505 m 51 202 l 51 417 l 76 442 l 152 366 l 152 202 l 51 202 m 455 808 l 153 808 l 52 846 q 115 909 64 896 l 492 909 l 455 808 m 480 543 l 480 808 l 518 909 q 581 846 568 896 l 581 492 l 556 467 l 480 543 m 152 0 l 51 0 l 51 101 l 152 101 l 152 0 z "},"@":{"ha":631,"x_min":51,"x_max":581,"o":"m 556 442 l 581 417 l 581 265 q 518 202 568 215 l 480 303 l 480 366 l 556 442 m 492 0 l 114 0 q 51 63 63 13 l 152 101 l 455 101 l 492 0 m 51 88 l 51 417 l 76 442 l 152 366 l 152 126 l 51 88 m 455 808 l 153 808 l 52 846 q 115 909 64 896 l 492 909 l 455 808 m 152 783 l 152 543 l 76 467 l 51 492 l 51 821 l 152 783 m 480 543 l 480 808 l 518 909 q 581 846 568 896 l 581 492 l 556 467 l 480 543 m 492 202 l 316 201 q 253 264 265 213 l 354 303 l 455 303 l 492 202 m 253 290 l 253 417 l 278 442 l 354 366 l 354 328 l 253 290 m 354 581 l 354 543 l 278 467 l 253 492 l 253 619 l 354 581 m 455 606 l 354 606 l 253 645 q 316 708 265 696 l 455 707 l 455 606 z "},"A":{"ha":631,"x_min":51,"x_max":581,"o":"m 480 505 l 530 455 l 480 404 l 152 404 l 101 455 l 152 505 l 480 505 m 556 442 l 581 417 l 581 63 q 518 0 568 13 l 480 101 l 480 366 l 556 442 m 455 808 l 153 808 l 52 846 q 115 909 64 896 l 492 909 l 455 808 m 152 783 l 152 543 l 76 467 l 51 492 l 51 821 l 152 783 m 480 543 l 480 808 l 518 909 q 581 846 568 896 l 581 492 l 556 467 l 480 543 m 152 366 l 152 101 l 114 0 q 51 63 63 13 l 51 417 l 76 442 l 152 366 z "},"B":{"ha":631,"x_min":51,"x_max":581,"o":"m 480 505 l 530 455 l 480 404 l 152 404 l 101 455 l 152 505 l 480 505 m 51 88 l 51 417 l 76 442 l 152 366 l 152 126 l 51 88 m 455 808 l 152 808 l 51 846 l 51 909 l 455 909 l 505 859 l 455 808 m 152 783 l 152 543 l 76 467 l 51 492 l 51 821 l 152 783 m 480 543 l 480 808 l 518 846 l 581 783 l 581 492 l 556 467 l 480 543 m 556 442 l 581 417 l 581 126 l 518 63 l 480 101 l 480 366 l 556 442 m 504 51 l 453 0 l 51 0 l 51 63 l 152 101 l 453 101 l 504 51 z "},"C":{"ha":631,"x_min":51,"x_max":530,"o":"m 530 0 l 114 0 q 51 63 63 13 l 152 101 l 492 101 l 530 0 m 51 88 l 51 417 l 76 442 l 152 366 l 152 126 l 51 88 m 492 808 l 153 808 l 52 846 q 115 909 64 896 l 530 909 l 492 808 m 152 783 l 152 543 l 76 467 l 51 492 l 51 821 l 152 783 z "},"D":{"ha":631,"x_min":51,"x_max":581,"o":"m 51 88 l 51 417 l 76 442 l 152 366 l 152 126 l 51 88 m 455 808 l 152 808 l 51 846 l 51 909 l 455 909 l 505 859 l 455 808 m 152 783 l 152 543 l 76 467 l 51 492 l 51 821 l 152 783 m 480 543 l 480 808 l 518 846 l 581 783 l 581 492 l 556 467 l 480 543 m 556 442 l 581 417 l 581 126 l 518 63 l 480 101 l 480 366 l 556 442 m 504 51 l 453 0 l 51 0 l 51 63 l 152 101 l 453 101 l 504 51 z "},"E":{"ha":631,"x_min":51,"x_max":530,"o":"m 480 505 l 530 455 l 480 404 l 152 404 l 101 455 l 152 505 l 480 505 m 530 0 l 114 0 q 51 63 63 13 l 152 101 l 492 101 l 530 0 m 51 88 l 51 417 l 76 442 l 152 366 l 152 126 l 51 88 m 492 808 l 153 808 l 52 846 q 115 909 64 896 l 530 909 l 492 808 m 152 783 l 152 543 l 76 467 l 51 492 l 51 821 l 152 783 z "},"F":{"ha":631,"x_min":51,"x_max":530,"o":"m 480 505 l 530 455 l 480 404 l 152 404 l 101 455 l 152 505 l 480 505 m 492 808 l 153 808 l 52 846 q 115 909 64 896 l 530 909 l 492 808 m 152 783 l 152 543 l 76 467 l 51 492 l 51 821 l 152 783 m 152 366 l 152 101 l 114 0 q 51 63 63 13 l 51 417 l 76 442 l 152 366 z "},"G":{"ha":631,"x_min":51,"x_max":581,"o":"m 480 505 l 530 455 l 480 404 l 366 404 l 316 455 l 366 505 l 480 505 m 556 442 l 581 417 l 581 63 q 518 0 568 13 l 480 101 l 480 366 l 556 442 m 492 0 l 114 0 q 51 63 63 13 l 152 101 l 455 101 l 492 0 m 51 88 l 51 417 l 76 442 l 152 366 l 152 126 l 51 88 m 492 808 l 153 808 l 52 846 q 115 909 64 896 l 530 909 l 492 808 m 152 783 l 152 543 l 76 467 l 51 492 l 51 821 l 152 783 z "},"H":{"ha":631,"x_min":51,"x_max":581,"o":"m 480 505 l 530 455 l 480 404 l 152 404 l 101 455 l 152 505 l 480 505 m 556 442 l 581 417 l 581 63 q 518 0 568 13 l 480 101 l 480 366 l 556 442 m 480 543 l 480 808 l 518 909 q 581 846 568 896 l 581 492 l 556 467 l 480 543 m 152 366 l 152 101 l 114 0 q 51 63 63 13 l 51 417 l 76 442 l 152 366 m 76 455 l 51 480 l 51 833 q 114 896 63 884 l 152 795 l 152 530 l 76 455 z "},"I":{"ha":631,"x_min":253,"x_max":354,"o":"m 253 543 l 253 808 l 290 909 q 354 846 341 896 l 354 492 l 328 467 l 253 543 m 328 455 l 354 429 l 354 76 q 290 13 341 25 l 253 114 l 253 379 l 328 455 z "},"J":{"ha":631,"x_min":51,"x_max":581,"o":"m 556 442 l 581 417 l 581 63 q 518 0 568 13 l 480 101 l 480 366 l 556 442 m 492 0 l 114 0 q 51 63 63 13 l 152 101 l 455 101 l 492 0 m 51 88 l 51 417 l 76 442 l 152 366 l 152 126 l 51 88 m 480 543 l 480 808 l 518 909 q 581 846 568 896 l 581 492 l 556 467 l 480 543 z "},"K":{"ha":631,"x_min":51,"x_max":581,"o":"m 480 505 l 530 455 l 480 404 l 152 404 l 101 455 l 152 505 l 480 505 m 556 442 l 581 417 l 581 63 q 518 0 568 13 l 480 101 l 480 366 l 556 442 m 177 606 l 480 909 q 581 859 556 909 l 253 530 l 177 530 l 177 606 m 152 366 l 152 101 l 114 0 q 51 63 63 13 l 51 417 l 76 442 l 152 366 m 76 467 l 51 492 l 51 846 q 114 909 63 896 l 152 808 l 152 543 l 76 467 z "},"L":{"ha":631,"x_min":51,"x_max":581,"o":"m 152 366 l 152 101 l 114 0 q 51 63 63 13 l 51 417 l 76 442 l 152 366 m 177 101 l 480 101 l 581 63 q 518 0 568 13 l 139 0 l 177 101 m 76 467 l 51 492 l 51 846 q 114 909 63 896 l 152 808 l 152 543 l 76 467 z "},"M":{"ha":631,"x_min":51,"x_max":581,"o":"m 366 492 l 316 442 l 265 492 l 265 783 l 366 783 l 366 492 m 556 442 l 581 417 l 581 63 q 518 0 568 13 l 480 101 l 480 366 l 556 442 m 455 808 l 153 808 l 52 846 q 115 909 64 896 l 492 909 l 455 808 m 152 783 l 152 543 l 76 467 l 51 492 l 51 821 l 152 783 m 480 543 l 480 808 l 518 909 q 581 846 568 896 l 581 492 l 556 467 l 480 543 m 152 366 l 152 101 l 114 0 q 51 63 63 13 l 51 417 l 76 442 l 152 366 z "},"N":{"ha":631,"x_min":51,"x_max":581,"o":"m 152 366 l 152 101 l 114 0 q 51 63 63 13 l 51 417 l 76 442 l 152 366 m 455 530 l 366 530 l 177 720 l 177 795 l 253 795 l 455 593 l 455 530 m 556 442 l 581 417 l 581 63 q 518 0 568 13 l 480 101 l 480 366 l 556 442 m 480 530 l 480 795 l 518 896 q 581 833 568 884 l 581 480 l 556 455 l 480 530 m 76 455 l 51 480 l 51 833 q 114 896 63 884 l 152 795 l 152 530 l 76 455 z "},"O":{"ha":631,"x_min":51,"x_max":581,"o":"m 455 808 l 177 808 l 126 859 l 177 909 l 455 909 l 505 859 l 455 808 m 480 543 l 480 808 l 518 846 l 581 783 l 581 492 l 556 467 l 480 543 m 556 442 l 581 417 l 581 126 l 518 63 l 480 101 l 480 366 l 556 442 m 76 467 l 51 492 l 51 783 l 114 846 l 152 808 l 152 543 l 76 467 m 505 51 l 455 0 l 177 0 l 126 51 l 177 101 l 455 101 l 505 51 m 152 366 l 152 101 l 114 63 l 51 126 l 51 417 l 76 442 l 152 366 z "},"P":{"ha":631,"x_min":51,"x_max":581,"o":"m 480 505 l 530 455 l 480 404 l 152 404 l 101 455 l 152 505 l 480 505 m 455 808 l 152 808 l 51 846 l 51 909 l 455 909 l 505 859 l 455 808 m 152 783 l 152 543 l 76 467 l 51 492 l 51 821 l 152 783 m 480 543 l 480 808 l 518 846 l 581 783 l 581 492 l 556 467 l 480 543 m 152 366 l 152 101 l 114 0 q 51 63 63 13 l 51 417 l 76 442 l 152 366 z "},"Q":{"ha":631,"x_min":51,"x_max":593,"o":"m 556 442 l 581 417 l 581 114 l 480 215 l 480 366 l 556 442 m 467 0 l 114 0 q 51 63 63 13 l 152 101 l 366 101 l 467 0 m 51 88 l 51 417 l 76 442 l 152 366 l 152 126 l 51 88 m 455 808 l 153 808 l 52 846 q 115 909 64 896 l 492 909 l 455 808 m 152 783 l 152 543 l 76 467 l 51 492 l 51 821 l 152 783 m 480 543 l 480 808 l 518 909 q 581 846 568 896 l 581 492 l 556 467 l 480 543 m 354 227 l 429 227 l 593 63 l 593 -13 l 518 -13 l 354 152 l 354 227 z "},"R":{"ha":631,"x_min":51,"x_max":581,"o":"m 480 505 l 530 455 l 480 404 l 152 404 l 101 455 l 152 505 l 480 505 m 177 379 l 253 379 l 581 51 q 480 0 556 0 l 177 303 l 177 379 m 152 366 l 152 101 l 114 0 q 51 63 63 13 l 51 417 l 76 442 l 152 366 m 455 808 l 153 808 l 52 846 q 115 909 64 896 l 492 909 l 455 808 m 480 543 l 480 808 l 518 909 q 581 846 568 896 l 581 492 l 556 467 l 480 543 m 152 783 l 152 543 l 76 467 l 51 492 l 51 821 l 152 783 z "},"S":{"ha":631,"x_min":51,"x_max":581,"o":"m 480 505 l 530 455 l 480 404 l 152 404 l 101 455 l 152 505 l 480 505 m 556 442 l 581 417 l 581 63 q 518 0 568 13 l 480 101 l 480 366 l 556 442 m 492 0 l 114 0 q 51 63 63 13 l 152 101 l 455 101 l 492 0 m 152 783 l 152 543 l 76 467 l 51 492 l 51 821 l 152 783 m 153 808 l 52 846 q 115 909 64 896 l 518 909 q 581 846 568 896 l 480 808 l 153 808 z "},"T":{"ha":631,"x_min":52,"x_max":581,"o":"m 316 442 l 366 391 l 366 63 q 303 0 354 13 l 265 101 l 265 391 l 316 442 m 265 518 l 265 783 l 366 783 l 366 518 l 316 467 l 265 518 m 153 808 l 52 846 q 115 909 64 896 l 518 909 q 581 846 568 896 l 480 808 l 153 808 z "},"U":{"ha":631,"x_min":51,"x_max":581,"o":"m 556 442 l 581 417 l 581 63 q 518 0 568 13 l 480 101 l 480 366 l 556 442 m 492 0 l 114 0 q 51 63 63 13 l 152 101 l 455 101 l 492 0 m 51 88 l 51 417 l 76 442 l 152 366 l 152 126 l 51 88 m 480 543 l 480 808 l 518 909 q 581 846 568 896 l 581 492 l 556 467 l 480 543 m 76 455 l 51 480 l 51 833 q 114 896 63 884 l 152 795 l 152 530 l 76 455 z "},"V":{"ha":631,"x_min":51,"x_max":581,"o":"m 76 455 l 51 480 l 51 833 q 114 896 63 884 l 152 795 l 152 530 l 76 455 m 480 530 l 480 795 l 518 896 q 581 833 568 884 l 581 480 l 556 455 l 480 530 m 303 152 l 303 0 l 51 328 l 51 404 l 76 429 l 152 354 l 303 152 m 480 354 l 556 429 l 581 404 l 581 328 l 328 0 l 328 152 l 480 354 z "},"W":{"ha":631,"x_min":51,"x_max":581,"o":"m 366 126 l 265 126 l 265 417 l 316 467 l 366 417 l 366 126 m 480 543 l 480 808 l 518 909 q 581 846 568 896 l 581 492 l 556 467 l 480 543 m 492 0 l 115 0 q 52 63 64 13 l 153 101 l 455 101 l 492 0 m 51 88 l 51 417 l 76 442 l 152 366 l 152 126 l 51 88 m 556 442 l 581 417 l 581 63 q 518 0 568 13 l 480 101 l 480 366 l 556 442 m 76 467 l 51 492 l 51 846 q 114 909 63 896 l 152 808 l 152 543 l 76 467 z "},"X":{"ha":631,"x_min":51,"x_max":581,"o":"m 328 442 l 385 442 l 580 51 q 479 0 554 0 l 328 306 l 328 442 m 330 604 l 480 909 q 581 859 556 909 l 386 467 l 330 467 l 330 604 m 302 306 l 152 0 q 51 51 76 0 l 245 442 l 302 442 l 302 306 m 303 467 l 246 467 l 52 859 q 153 909 77 909 l 303 602 l 303 467 z "},"Y":{"ha":631,"x_min":51,"x_max":581,"o":"m 480 505 l 530 455 l 480 404 l 152 404 l 101 455 l 152 505 l 480 505 m 556 442 l 581 417 l 581 63 q 518 0 568 13 l 480 101 l 480 366 l 556 442 m 492 0 l 114 0 q 51 63 63 13 l 152 101 l 455 101 l 492 0 m 152 821 l 152 543 l 76 467 l 51 492 l 51 859 l 152 821 m 480 543 l 480 808 l 518 909 q 581 846 568 896 l 581 492 l 556 467 l 480 543 z "},"Z":{"ha":631,"x_min":51,"x_max":581,"o":"m 530 0 l 177 0 l 227 101 l 492 101 l 530 0 m 404 808 l 153 808 l 52 846 q 115 909 64 896 l 455 909 l 404 808 m 316 543 l 480 909 q 581 859 556 909 l 391 467 l 316 467 l 316 543 m 328 366 l 152 0 q 51 51 76 0 l 253 442 l 328 442 l 328 366 z "},"[":{"ha":631,"x_min":51,"x_max":316,"o":"m 51 88 l 51 417 l 76 442 l 152 366 l 152 126 l 51 88 m 240 808 l 153 808 l 52 846 q 115 909 64 896 l 290 909 l 316 884 l 240 808 m 152 783 l 152 543 l 76 467 l 51 492 l 51 821 l 152 783 m 316 25 l 290 0 l 115 0 q 52 63 64 13 l 153 101 l 240 101 l 316 25 z "},"\\":{"ha":631,"x_min":52,"x_max":580,"o":"m 328 442 l 385 442 l 580 51 q 479 0 554 0 l 328 306 l 328 442 m 303 467 l 246 467 l 52 859 q 153 909 77 909 l 303 602 l 303 467 z "},"]":{"ha":631,"x_min":316,"x_max":581,"o":"m 556 442 l 581 417 l 581 63 q 518 0 568 13 l 480 101 l 480 366 l 556 442 m 455 808 l 391 808 l 316 884 l 341 909 l 492 909 l 455 808 m 480 543 l 480 808 l 518 909 q 581 846 568 896 l 581 492 l 556 467 l 480 543 m 492 0 l 341 0 l 316 25 l 391 101 l 455 101 l 492 0 z "},"^":{"ha":631,"x_min":51,"x_max":580,"o":"m 327 770 l 327 909 l 580 657 l 580 606 l 530 568 l 327 770 m 100 568 l 51 606 l 51 657 l 303 909 l 302 770 l 100 568 z "},"_":{"ha":631,"x_min":51,"x_max":580,"o":"m 479 101 l 580 63 q 516 0 567 13 l 114 0 q 51 63 63 13 l 152 101 l 479 101 z "},"`":{"ha":631,"x_min":202,"x_max":429,"o":"m 429 770 l 429 720 l 379 707 l 202 884 l 215 934 l 265 934 l 429 770 z "},"a":{"ha":631,"x_min":51,"x_max":581,"o":"m 480 505 l 530 455 l 480 404 l 152 404 l 101 455 l 152 505 l 480 505 m 556 442 l 581 417 l 581 63 q 518 0 568 13 l 480 101 l 480 366 l 556 442 m 455 808 l 153 808 l 52 846 q 115 909 64 896 l 492 909 l 455 808 m 152 783 l 152 543 l 76 467 l 51 492 l 51 821 l 152 783 m 480 543 l 480 808 l 518 909 q 581 846 568 896 l 581 492 l 556 467 l 480 543 m 152 366 l 152 101 l 114 0 q 51 63 63 13 l 51 417 l 76 442 l 152 366 z "},"b":{"ha":631,"x_min":51,"x_max":581,"o":"m 480 505 l 530 455 l 480 404 l 152 404 l 101 455 l 152 505 l 480 505 m 51 88 l 51 417 l 76 442 l 152 366 l 152 126 l 51 88 m 455 808 l 152 808 l 51 846 l 51 909 l 455 909 l 505 859 l 455 808 m 152 783 l 152 543 l 76 467 l 51 492 l 51 821 l 152 783 m 480 543 l 480 808 l 518 846 l 581 783 l 581 492 l 556 467 l 480 543 m 556 442 l 581 417 l 581 126 l 518 63 l 480 101 l 480 366 l 556 442 m 504 51 l 453 0 l 51 0 l 51 63 l 152 101 l 453 101 l 504 51 z "},"c":{"ha":631,"x_min":51,"x_max":530,"o":"m 530 0 l 114 0 q 51 63 63 13 l 152 101 l 492 101 l 530 0 m 51 88 l 51 417 l 76 442 l 152 366 l 152 126 l 51 88 m 492 808 l 153 808 l 52 846 q 115 909 64 896 l 530 909 l 492 808 m 152 783 l 152 543 l 76 467 l 51 492 l 51 821 l 152 783 z "},"d":{"ha":631,"x_min":51,"x_max":581,"o":"m 51 88 l 51 417 l 76 442 l 152 366 l 152 126 l 51 88 m 455 808 l 152 808 l 51 846 l 51 909 l 455 909 l 505 859 l 455 808 m 152 783 l 152 543 l 76 467 l 51 492 l 51 821 l 152 783 m 480 543 l 480 808 l 518 846 l 581 783 l 581 492 l 556 467 l 480 543 m 556 442 l 581 417 l 581 126 l 518 63 l 480 101 l 480 366 l 556 442 m 504 51 l 453 0 l 51 0 l 51 63 l 152 101 l 453 101 l 504 51 z "},"e":{"ha":631,"x_min":51,"x_max":530,"o":"m 480 505 l 530 455 l 480 404 l 152 404 l 101 455 l 152 505 l 480 505 m 530 0 l 114 0 q 51 63 63 13 l 152 101 l 492 101 l 530 0 m 51 88 l 51 417 l 76 442 l 152 366 l 152 126 l 51 88 m 492 808 l 153 808 l 52 846 q 115 909 64 896 l 530 909 l 492 808 m 152 783 l 152 543 l 76 467 l 51 492 l 51 821 l 152 783 z "},"f":{"ha":631,"x_min":51,"x_max":530,"o":"m 480 505 l 530 455 l 480 404 l 152 404 l 101 455 l 152 505 l 480 505 m 492 808 l 153 808 l 52 846 q 115 909 64 896 l 530 909 l 492 808 m 152 783 l 152 543 l 76 467 l 51 492 l 51 821 l 152 783 m 152 366 l 152 101 l 114 0 q 51 63 63 13 l 51 417 l 76 442 l 152 366 z "},"g":{"ha":631,"x_min":51,"x_max":581,"o":"m 480 505 l 530 455 l 480 404 l 366 404 l 316 455 l 366 505 l 480 505 m 556 442 l 581 417 l 581 63 q 518 0 568 13 l 480 101 l 480 366 l 556 442 m 492 0 l 114 0 q 51 63 63 13 l 152 101 l 455 101 l 492 0 m 51 88 l 51 417 l 76 442 l 152 366 l 152 126 l 51 88 m 492 808 l 153 808 l 52 846 q 115 909 64 896 l 530 909 l 492 808 m 152 783 l 152 543 l 76 467 l 51 492 l 51 821 l 152 783 z "},"h":{"ha":631,"x_min":51,"x_max":581,"o":"m 480 505 l 530 455 l 480 404 l 152 404 l 101 455 l 152 505 l 480 505 m 556 442 l 581 417 l 581 63 q 518 0 568 13 l 480 101 l 480 366 l 556 442 m 480 543 l 480 808 l 518 909 q 581 846 568 896 l 581 492 l 556 467 l 480 543 m 152 366 l 152 101 l 114 0 q 51 63 63 13 l 51 417 l 76 442 l 152 366 m 76 455 l 51 480 l 51 833 q 114 896 63 884 l 152 795 l 152 530 l 76 455 z "},"i":{"ha":631,"x_min":253,"x_max":354,"o":"m 253 543 l 253 808 l 290 909 q 354 846 341 896 l 354 492 l 328 467 l 253 543 m 328 455 l 354 429 l 354 76 q 290 13 341 25 l 253 114 l 253 379 l 328 455 z "},"j":{"ha":631,"x_min":51,"x_max":581,"o":"m 556 442 l 581 417 l 581 63 q 518 0 568 13 l 480 101 l 480 366 l 556 442 m 492 0 l 114 0 q 51 63 63 13 l 152 101 l 455 101 l 492 0 m 51 88 l 51 417 l 76 442 l 152 366 l 152 126 l 51 88 m 480 543 l 480 808 l 518 909 q 581 846 568 896 l 581 492 l 556 467 l 480 543 z "},"k":{"ha":631,"x_min":51,"x_max":581,"o":"m 480 505 l 530 455 l 480 404 l 152 404 l 101 455 l 152 505 l 480 505 m 556 442 l 581 417 l 581 63 q 518 0 568 13 l 480 101 l 480 366 l 556 442 m 177 606 l 480 909 q 581 859 556 909 l 253 530 l 177 530 l 177 606 m 152 366 l 152 101 l 114 0 q 51 63 63 13 l 51 417 l 76 442 l 152 366 m 76 467 l 51 492 l 51 846 q 114 909 63 896 l 152 808 l 152 543 l 76 467 z "},"l":{"ha":631,"x_min":51,"x_max":581,"o":"m 152 366 l 152 101 l 114 0 q 51 63 63 13 l 51 417 l 76 442 l 152 366 m 177 101 l 480 101 l 581 63 q 518 0 568 13 l 139 0 l 177 101 m 76 467 l 51 492 l 51 846 q 114 909 63 896 l 152 808 l 152 543 l 76 467 z "},"m":{"ha":631,"x_min":51,"x_max":581,"o":"m 366 492 l 316 442 l 265 492 l 265 783 l 366 783 l 366 492 m 556 442 l 581 417 l 581 63 q 518 0 568 13 l 480 101 l 480 366 l 556 442 m 455 808 l 153 808 l 52 846 q 115 909 64 896 l 492 909 l 455 808 m 152 783 l 152 543 l 76 467 l 51 492 l 51 821 l 152 783 m 480 543 l 480 808 l 518 909 q 581 846 568 896 l 581 492 l 556 467 l 480 543 m 152 366 l 152 101 l 114 0 q 51 63 63 13 l 51 417 l 76 442 l 152 366 z "},"n":{"ha":631,"x_min":51,"x_max":581,"o":"m 152 366 l 152 101 l 114 0 q 51 63 63 13 l 51 417 l 76 442 l 152 366 m 455 530 l 366 530 l 177 720 l 177 795 l 253 795 l 455 593 l 455 530 m 556 442 l 581 417 l 581 63 q 518 0 568 13 l 480 101 l 480 366 l 556 442 m 480 530 l 480 795 l 518 896 q 581 833 568 884 l 581 480 l 556 455 l 480 530 m 76 455 l 51 480 l 51 833 q 114 896 63 884 l 152 795 l 152 530 l 76 455 z "},"o":{"ha":631,"x_min":51,"x_max":581,"o":"m 455 808 l 177 808 l 126 859 l 177 909 l 455 909 l 505 859 l 455 808 m 480 543 l 480 808 l 518 846 l 581 783 l 581 492 l 556 467 l 480 543 m 556 442 l 581 417 l 581 126 l 518 63 l 480 101 l 480 366 l 556 442 m 76 467 l 51 492 l 51 783 l 114 846 l 152 808 l 152 543 l 76 467 m 505 51 l 455 0 l 177 0 l 126 51 l 177 101 l 455 101 l 505 51 m 152 366 l 152 101 l 114 63 l 51 126 l 51 417 l 76 442 l 152 366 z "},"p":{"ha":631,"x_min":51,"x_max":581,"o":"m 480 505 l 530 455 l 480 404 l 152 404 l 101 455 l 152 505 l 480 505 m 455 808 l 152 808 l 51 846 l 51 909 l 455 909 l 505 859 l 455 808 m 152 783 l 152 543 l 76 467 l 51 492 l 51 821 l 152 783 m 480 543 l 480 808 l 518 846 l 581 783 l 581 492 l 556 467 l 480 543 m 152 366 l 152 101 l 114 0 q 51 63 63 13 l 51 417 l 76 442 l 152 366 z "},"q":{"ha":631,"x_min":51,"x_max":593,"o":"m 556 442 l 581 417 l 581 114 l 480 215 l 480 366 l 556 442 m 467 0 l 114 0 q 51 63 63 13 l 152 101 l 366 101 l 467 0 m 51 88 l 51 417 l 76 442 l 152 366 l 152 126 l 51 88 m 455 808 l 153 808 l 52 846 q 115 909 64 896 l 492 909 l 455 808 m 152 783 l 152 543 l 76 467 l 51 492 l 51 821 l 152 783 m 480 543 l 480 808 l 518 909 q 581 846 568 896 l 581 492 l 556 467 l 480 543 m 354 227 l 429 227 l 593 63 l 593 -13 l 518 -13 l 354 152 l 354 227 z "},"r":{"ha":631,"x_min":51,"x_max":581,"o":"m 480 505 l 530 455 l 480 404 l 152 404 l 101 455 l 152 505 l 480 505 m 177 379 l 253 379 l 581 51 q 480 0 556 0 l 177 303 l 177 379 m 152 366 l 152 101 l 114 0 q 51 63 63 13 l 51 417 l 76 442 l 152 366 m 455 808 l 153 808 l 52 846 q 115 909 64 896 l 492 909 l 455 808 m 480 543 l 480 808 l 518 909 q 581 846 568 896 l 581 492 l 556 467 l 480 543 m 152 783 l 152 543 l 76 467 l 51 492 l 51 821 l 152 783 z "},"s":{"ha":631,"x_min":51,"x_max":581,"o":"m 480 505 l 530 455 l 480 404 l 152 404 l 101 455 l 152 505 l 480 505 m 556 442 l 581 417 l 581 63 q 518 0 568 13 l 480 101 l 480 366 l 556 442 m 492 0 l 114 0 q 51 63 63 13 l 152 101 l 455 101 l 492 0 m 152 783 l 152 543 l 76 467 l 51 492 l 51 821 l 152 783 m 153 808 l 52 846 q 115 909 64 896 l 518 909 q 581 846 568 896 l 480 808 l 153 808 z "},"t":{"ha":631,"x_min":52,"x_max":581,"o":"m 316 442 l 366 391 l 366 63 q 303 0 354 13 l 265 101 l 265 391 l 316 442 m 265 518 l 265 783 l 366 783 l 366 518 l 316 467 l 265 518 m 153 808 l 52 846 q 115 909 64 896 l 518 909 q 581 846 568 896 l 480 808 l 153 808 z "},"u":{"ha":631,"x_min":51,"x_max":581,"o":"m 556 442 l 581 417 l 581 63 q 518 0 568 13 l 480 101 l 480 366 l 556 442 m 492 0 l 114 0 q 51 63 63 13 l 152 101 l 455 101 l 492 0 m 51 88 l 51 417 l 76 442 l 152 366 l 152 126 l 51 88 m 480 543 l 480 808 l 518 909 q 581 846 568 896 l 581 492 l 556 467 l 480 543 m 76 455 l 51 480 l 51 833 q 114 896 63 884 l 152 795 l 152 530 l 76 455 z "},"v":{"ha":631,"x_min":51,"x_max":581,"o":"m 76 455 l 51 480 l 51 833 q 114 896 63 884 l 152 795 l 152 530 l 76 455 m 480 530 l 480 795 l 518 896 q 581 833 568 884 l 581 480 l 556 455 l 480 530 m 303 152 l 303 0 l 51 328 l 51 404 l 76 429 l 152 354 l 303 152 m 480 354 l 556 429 l 581 404 l 581 328 l 328 0 l 328 152 l 480 354 z "},"w":{"ha":631,"x_min":51,"x_max":581,"o":"m 366 126 l 265 126 l 265 417 l 316 467 l 366 417 l 366 126 m 480 543 l 480 808 l 518 909 q 581 846 568 896 l 581 492 l 556 467 l 480 543 m 492 0 l 115 0 q 52 63 64 13 l 153 101 l 455 101 l 492 0 m 51 88 l 51 417 l 76 442 l 152 366 l 152 126 l 51 88 m 556 442 l 581 417 l 581 63 q 518 0 568 13 l 480 101 l 480 366 l 556 442 m 76 467 l 51 492 l 51 846 q 114 909 63 896 l 152 808 l 152 543 l 76 467 z "},"x":{"ha":631,"x_min":51,"x_max":581,"o":"m 328 442 l 385 442 l 580 51 q 479 0 554 0 l 328 306 l 328 442 m 330 604 l 480 909 q 581 859 556 909 l 386 467 l 330 467 l 330 604 m 302 306 l 152 0 q 51 51 76 0 l 245 442 l 302 442 l 302 306 m 303 467 l 246 467 l 52 859 q 153 909 77 909 l 303 602 l 303 467 z "},"y":{"ha":631,"x_min":51,"x_max":581,"o":"m 480 505 l 530 455 l 480 404 l 152 404 l 101 455 l 152 505 l 480 505 m 556 442 l 581 417 l 581 63 q 518 0 568 13 l 480 101 l 480 366 l 556 442 m 492 0 l 114 0 q 51 63 63 13 l 152 101 l 455 101 l 492 0 m 152 821 l 152 543 l 76 467 l 51 492 l 51 859 l 152 821 m 480 543 l 480 808 l 518 909 q 581 846 568 896 l 581 492 l 556 467 l 480 543 z "},"z":{"ha":631,"x_min":51,"x_max":581,"o":"m 530 0 l 177 0 l 227 101 l 492 101 l 530 0 m 404 808 l 153 808 l 52 846 q 115 909 64 896 l 455 909 l 404 808 m 316 543 l 480 909 q 581 859 556 909 l 391 467 l 316 467 l 316 543 m 328 366 l 152 0 q 51 51 76 0 l 253 442 l 328 442 l 328 366 z "},"{":{"ha":631,"x_min":38,"x_max":455,"o":"m 189 88 l 189 366 l 265 442 l 290 417 l 290 126 l 189 88 m 379 808 l 292 808 l 191 846 q 254 909 203 896 l 429 909 l 455 884 l 379 808 m 290 783 l 290 492 l 265 467 l 189 543 l 189 821 l 290 783 m 455 25 l 429 0 l 254 0 q 191 63 203 13 l 292 101 l 379 101 l 455 25 m 177 505 l 227 455 l 177 404 l 88 404 l 38 455 l 88 505 l 177 505 z "},"|":{"ha":631,"x_min":51,"x_max":152,"o":"m 152 63 q 88 0 139 13 l 51 101 l 51 808 l 88 909 q 152 846 139 896 l 152 63 z "},"}":{"ha":631,"x_min":101,"x_max":518,"o":"m 265 126 l 265 417 l 290 442 l 366 366 l 366 88 l 265 126 m 101 884 l 126 909 l 302 909 q 365 846 352 896 l 264 808 l 177 808 l 101 884 m 366 821 l 366 543 l 290 467 l 265 492 l 265 783 l 366 821 m 177 101 l 264 101 l 365 63 q 302 0 352 13 l 126 0 l 101 25 l 177 101 m 467 505 l 518 455 l 467 404 l 379 404 l 328 455 l 379 505 l 467 505 z "},"~":{"ha":631,"x_min":38,"x_max":593,"o":"m 341 606 l 391 556 l 341 505 l 290 505 l 240 556 l 290 606 l 341 606 m 139 605 l 189 554 l 139 504 l 88 504 l 38 554 l 88 605 l 139 605 m 543 606 l 593 556 l 543 505 l 492 505 l 442 556 l 492 606 l 543 606 m 240 682 l 290 631 l 240 581 l 189 581 l 139 631 l 189 682 l 240 682 m 442 518 l 492 467 l 442 417 l 391 417 l 341 467 l 391 518 l 442 518 z "},"‰":{"ha":631,"x_min":0,"x_max":619,"o":"m 289 504 l 87 303 q 13 378 11 302 l 251 617 l 289 617 l 289 504 m 114 808 l 101 808 l 0 846 q 63 909 13 896 l 152 909 l 114 808 m 101 783 l 101 707 l 63 606 q 0 669 13 619 l 0 821 l 101 783 m 126 707 l 139 707 l 240 669 q 177 606 227 619 l 88 606 l 126 707 m 139 732 l 139 808 l 177 909 q 240 846 227 896 l 240 694 l 139 732 m 492 202 l 480 202 l 379 240 q 442 303 391 290 l 530 303 l 492 202 m 481 177 l 481 101 l 443 0 q 380 63 393 13 l 380 215 l 481 177 m 505 101 l 518 101 l 619 63 q 556 0 606 13 l 467 0 l 505 101 m 518 126 l 518 202 l 556 303 q 619 240 606 290 l 619 88 l 518 126 m 227 126 l 227 202 l 265 303 q 328 240 316 290 l 328 88 l 227 126 m 215 100 l 227 100 l 328 62 q 265 -1 316 11 l 177 -1 l 215 100 m 189 177 l 189 101 l 152 0 q 88 63 101 13 l 88 215 l 189 177 m 202 202 l 189 202 l 88 240 q 152 303 101 290 l 240 303 l 202 202 m 303 670 l 505 871 q 580 797 581 872 l 341 556 l 303 557 l 303 670 z "},"‘":{"ha":631,"x_min":278,"x_max":379,"o":"m 379 657 l 278 657 l 278 859 l 328 909 l 379 859 l 379 657 z "},"’":{"ha":631,"x_min":278,"x_max":379,"o":"m 379 707 l 328 657 l 278 707 l 278 909 l 379 909 l 379 707 z "},"“":{"ha":631,"x_min":177,"x_max":480,"o":"m 278 658 l 177 658 l 177 860 l 227 910 l 278 860 l 278 658 m 480 657 l 379 657 l 379 859 l 429 909 l 480 859 l 480 657 z "},"”":{"ha":631,"x_min":177,"x_max":481,"o":"m 278 707 l 227 657 l 177 707 l 177 909 l 278 909 l 278 707 m 481 708 l 431 658 l 380 708 l 380 910 l 481 910 l 481 708 z "},"•":{"ha":631,"x_min":126,"x_max":492,"o":"m 309 278 q 180 331 234 278 q 126 461 126 385 q 180 590 126 537 q 309 644 234 644 q 439 590 385 644 q 492 461 492 537 q 439 331 492 385 q 309 278 385 278 z "},"–":{"ha":631,"x_min":38,"x_max":593,"o":"m 543 505 l 593 455 l 543 404 l 88 404 l 38 455 l 88 505 l 543 505 z "},"—":{"ha":631,"x_min":13,"x_max":619,"o":"m 568 505 l 619 455 l 568 404 l 63 404 l 13 455 l 63 505 l 568 505 z "},"©":{"ha":631,"x_min":0,"x_max":606,"o":"m 518 0 l 63 0 q 0 63 13 13 l 101 101 l 480 101 l 518 0 m 480 808 l 102 808 l 1 846 q 64 909 14 896 l 518 909 l 480 808 m 101 126 l 0 88 l 0 821 l 101 783 l 101 126 m 606 63 q 543 0 593 13 l 505 101 l 505 808 l 543 909 q 606 846 593 896 l 606 63 m 417 606 l 253 606 l 152 644 q 215 707 164 694 l 455 707 l 417 606 m 253 581 l 253 303 l 215 202 q 152 265 164 215 l 152 619 l 253 581 m 278 303 l 354 303 l 455 265 q 391 202 442 215 l 240 202 l 278 303 z "}}}
